<svg width="31" height="32" viewBox="0 0 31 32" fill="none" xmlns="http://www.w3.org/2000/svg">
<path d="M14.6333 13.3333L5.16793 23.224C4.91694 23.483 4.71773 23.7912 4.58179 24.1307C4.44584 24.4701 4.37585 24.8342 4.37585 25.202C4.37585 25.5697 4.44584 25.9338 4.58179 26.2733C4.71773 26.6128 4.91694 26.921 5.16793 27.18C5.67481 27.7043 6.36068 27.9987 7.07562 27.9987C7.79056 27.9987 8.47642 27.7043 8.98331 27.18L18.4795 17.3333L14.6333 13.3333Z" fill="white"/>
<path d="M23.232 20.3907L26.5474 16.9427C26.7878 16.6926 26.9228 16.3535 26.9228 16C26.9228 15.6464 26.7878 15.3074 26.5474 15.0573L16.8218 4.94266C16.5814 4.6927 16.2553 4.55228 15.9154 4.55228C15.5754 4.55228 15.2494 4.6927 15.009 4.94266L11.6936 8.39066C11.4532 8.6407 11.3182 8.97977 11.3182 9.33333C11.3182 9.68688 11.4532 10.026 11.6936 10.276L14.6333 13.3333L18.4795 17.3333L21.4192 20.3907C21.6596 20.6406 21.9857 20.781 22.3256 20.781C22.6656 20.781 22.9916 20.6406 23.232 20.3907Z" fill="white"/>
<path d="M14.6333 13.3333L5.16793 23.224C4.91694 23.483 4.71773 23.7912 4.58179 24.1307C4.44584 24.4701 4.37585 24.8342 4.37585 25.202C4.37585 25.5697 4.44584 25.9338 4.58179 26.2733C4.71773 26.6128 4.91694 26.921 5.16793 27.18C5.67481 27.7043 6.36068 27.9987 7.07562 27.9987C7.79056 27.9987 8.47642 27.7043 8.98331 27.18L18.4795 17.3333M14.6333 13.3333L18.4795 17.3333M14.6333 13.3333L11.6936 10.276M18.4795 17.3333L21.4192 20.3907M11.6936 10.276C11.4532 10.026 11.3182 9.68688 11.3182 9.33333C11.3182 8.97977 11.4532 8.6407 11.6936 8.39066L15.009 4.94266C15.2494 4.6927 15.5754 4.55228 15.9154 4.55228C16.2553 4.55228 16.5814 4.6927 16.8218 4.94266L26.5474 15.0573C26.7878 15.3074 26.9228 15.6464 26.9228 16C26.9228 16.3535 26.7878 16.6926 26.5474 16.9427L23.232 20.3907C22.9916 20.6406 22.6656 20.781 22.3256 20.781C21.9857 20.781 21.6596 20.6406 21.4192 20.3907M11.6936 10.276L21.4192 20.3907" stroke="white" stroke-width="2" stroke-linecap="round" stroke-linejoin="round"/>
</svg>
