<svg width="131" height="131" viewBox="0 0 131 131" fill="none" xmlns="http://www.w3.org/2000/svg">
    <path d="M98.25 6.54999H32.75C29.2757 6.54999 25.9437 7.93016 23.4869 10.3869C21.0302 12.8436 19.65 16.1757 19.65 19.65V111.35C19.65 114.824 21.0302 118.156 23.4869 120.613C25.9437 123.07 29.2757 124.45 32.75 124.45H98.25C101.724 124.45 105.056 123.07 107.513 120.613C109.97 118.156 111.35 114.824 111.35 111.35V19.65C111.35 16.1757 109.97 12.8436 107.513 10.3869C105.056 7.93016 101.724 6.54999 98.25 6.54999ZM72.05 104.8H58.95V91.7H72.05V104.8ZM89.735 55.02C89.1975 56.5961 88.5406 58.1288 87.77 59.605C86.8746 61.0668 85.7714 62.3906 84.495 63.535L81.22 66.81C80.0757 68.0864 78.7518 69.1896 77.29 70.085C75.98 71.395 75.325 72.705 74.015 74.015C72.9707 75.5898 72.2987 77.3818 72.05 79.255C71.5084 81.3938 71.2877 83.6013 71.395 85.805H59.605C59.5059 83.1682 59.7258 80.529 60.26 77.945C60.3903 75.9242 60.8322 73.9358 61.57 72.05C62.1895 70.39 63.0744 68.8415 64.19 67.465L68.12 63.535C69.0463 62.4729 70.1555 61.5856 71.395 60.915C72.705 60.26 73.36 58.95 74.015 58.295L75.98 54.365C76.5173 52.8995 76.7405 51.3373 76.635 49.78C76.5047 47.7592 76.0628 45.7708 75.325 43.885C73.8108 41.2842 71.5204 39.2228 68.775 37.99C67.7693 37.4605 66.632 37.233 65.5 37.335C63.6059 37.186 61.7054 37.53 59.9836 38.3335C58.2619 39.1369 56.7775 40.3726 55.675 41.92C53.432 45.1913 52.2853 49.0902 52.4 53.055H40.61C40.6275 49.2586 41.292 45.493 42.575 41.92C43.6739 38.7307 45.4632 35.8232 47.815 33.405C50.0547 31.146 52.7284 29.3636 55.675 28.165C59.2481 26.882 63.0137 26.2175 66.81 26.2C69.9076 26.2736 72.9857 26.7134 75.98 27.51C78.7321 28.4015 81.2118 29.9795 83.185 32.095C85.2946 34.2105 87.0624 36.6412 88.425 39.3C89.706 42.4181 90.3732 45.7541 90.39 49.125C90.4712 51.1118 90.2504 53.0994 89.735 55.02Z" fill="white"/>
</svg>